<svg width="24" height="24" fill="none" xmlns="http://www.w3.org/2000/svg"><g id="Instagram"><path id="Vector" d="M12 7.5a4.5 4.5 0 110 9 4.5 4.5 0 010-9zm0 7.5a3 3 0 10-3-3 3.01 3.01 0 003 3zM7.875 2.625h8.25a5.25 5.25 0 015.25 5.25v8.25a5.25 5.25 0 01-5.25 5.25h-8.25a5.25 5.25 0 01-5.25-5.25v-8.25a5.25 5.25 0 015.25-5.25zm-3.75 13.5a3.75 3.75 0 003.75 3.75h8.25a3.75 3.75 0 003.75-3.75v-8.25a3.75 3.75 0 00-3.75-3.75h-8.25a3.75 3.75 0 00-3.75 3.75v8.25zm1.875-9a1.125 1.125 0 102.25 0 1.125 1.125 0 00-2.25 0z" fill="#B18C72"/></g></svg>