<svg width="42" height="42" viewBox="0 0 42 42" fill="none" xmlns="http://www.w3.org/2000/svg">
<path d="M10.5 31.5C13.0169 31.1263 15.3155 29.8601 16.9764 27.9325C18.6374 26.0049 19.5499 23.5444 19.5475 21C19.5602 17.8059 20.7188 14.7225 22.8128 12.3106C24.9068 9.89872 27.7969 8.31852 30.9575 7.85747L35.49 7.20997C35.3675 7.06997 35.2625 6.92997 35.1225 6.78997C29.4175 1.08497 18.4625 2.79997 10.6225 10.605C3.99 17.325 1.75 26.25 4.83 32.305L10.5 31.5Z" fill="#5C3121"/>
<path d="M22.2775 21C22.266 24.1934 21.1104 27.277 19.0203 29.6914C16.9301 32.1059 14.0439 33.6912 10.885 34.16L6.57999 34.7725L6.84249 35.07C12.5475 40.775 23.5025 39.0775 31.3425 31.2725C37.94 24.6925 40.25 15.75 37.1875 9.78247L31.3425 10.6225C28.8417 10.9858 26.5533 12.2315 24.8908 14.1347C23.2283 16.0379 22.3014 18.473 22.2775 21Z" fill="#5C3121"/>
</svg>
