<?xml version="1.0" encoding="utf-8"?><svg viewBox="0 0 47 47" xmlns="http://www.w3.org/2000/svg" xmlns:xlink="http://www.w3.org/1999/xlink"><style>:root>svg{display:none}:root>svg:target{display:block}</style><svg viewBox="0 0 47 47" id="arrow-next" xmlns="http://www.w3.org/2000/svg"><circle cx="23.5" cy="23.5" r="23" transform="rotate(-90 23.5 23.5)"/><path d="m11 17 13 13 13-13"/></svg><svg viewBox="0 0 47 47" id="arrow-prev" xmlns="http://www.w3.org/2000/svg"><circle cx="23.5" cy="23.5" r="23" transform="rotate(90 23.5 23.5)"/><path d="M36 30 23 17 10 30"/></svg><svg viewBox="0 0 24 24" id="facebook" xmlns="http://www.w3.org/2000/svg"><path d="M21.563 12A9.562 9.562 0 1 0 12 21.563 9.572 9.572 0 0 0 21.563 12Zm-9 8.419v-6.357H15a.563.563 0 0 0 0-1.124h-2.438V10.5a1.697 1.697 0 0 1 1.688-1.688h1.5a.563.563 0 1 0 0-1.124h-1.5a2.822 2.822 0 0 0-2.813 2.812v2.438H9a.562.562 0 0 0 0 1.124h2.438v6.357a8.438 8.438 0 1 1 1.124 0Z"/></svg><svg viewBox="0 0 24 24" id="instagram" xmlns="http://www.w3.org/2000/svg"><path d="M12 7.5a4.5 4.5 0 1 1 0 9 4.5 4.5 0 0 1 0-9Zm0 7.5a3 3 0 1 0-3-3 3.01 3.01 0 0 0 3 3ZM7.875 2.625h8.25a5.25 5.25 0 0 1 5.25 5.25v8.25a5.25 5.25 0 0 1-5.25 5.25h-8.25a5.25 5.25 0 0 1-5.25-5.25v-8.25a5.25 5.25 0 0 1 5.25-5.25Zm-3.75 13.5a3.75 3.75 0 0 0 3.75 3.75h8.25a3.75 3.75 0 0 0 3.75-3.75v-8.25a3.75 3.75 0 0 0-3.75-3.75h-8.25a3.75 3.75 0 0 0-3.75 3.75v8.25Zm1.875-9a1.125 1.125 0 1 0 2.25 0 1.125 1.125 0 0 0-2.25 0Z"/></svg></svg>