<svg width="51" height="51" viewBox="0 0 51 51" fill="none" xmlns="http://www.w3.org/2000/svg">
<path d="M25.5 19.125C25.5 17 27.0172 14.875 30.0539 14.875C31.664 14.875 33.2083 14.2354 34.3468 13.0968C35.4854 11.9583 36.125 10.414 36.125 8.80388V7.4375M17 19.125V18.0625C17 16.3717 17.6716 14.7502 18.8672 13.5547C20.0627 12.3592 21.6842 11.6875 23.375 11.6875V11.6875C24.5022 11.6875 25.5832 11.2397 26.3802 10.4427C27.1772 9.64567 27.625 8.56467 27.625 7.4375V6.375M36.125 24.65V31.875C36.125 35.2565 34.7817 38.4995 32.3906 40.8906C29.9995 43.2817 26.7565 44.625 23.375 44.625H19.125C15.7435 44.625 12.5005 43.2817 10.1094 40.8906C7.7183 38.4995 6.375 35.2565 6.375 31.875V24.65C6.375 24.3118 6.50933 23.9875 6.74844 23.7484C6.98755 23.5093 7.31185 23.375 7.65 23.375H34.85C35.1882 23.375 35.5125 23.5093 35.7516 23.7484C35.9907 23.9875 36.125 24.3118 36.125 24.65V24.65Z" stroke="#B18C72" stroke-width="3.1875" stroke-linecap="round" stroke-linejoin="round"/>
<path d="M34 23.375H39.3125C40.7215 23.375 42.0727 23.9347 43.069 24.931C44.0653 25.9273 44.625 27.2785 44.625 28.6875C44.625 30.0965 44.0653 31.4477 43.069 32.444C42.0727 33.4403 40.7215 34 39.3125 34H36.125" stroke="#B18C72" stroke-width="3.1875" stroke-linecap="round" stroke-linejoin="round"/>
</svg>
