<svg width="114" height="59" viewBox="0 0 114 59" fill="none" xmlns="http://www.w3.org/2000/svg">
<path d="M67.5 19.125C67.5 17 69.0172 14.875 72.0539 14.875C73.664 14.875 75.2083 14.2354 76.3468 13.0968C77.4854 11.9583 78.125 10.414 78.125 8.80388V7.4375M59 19.125V18.0625C59 16.3717 59.6716 14.7502 60.8672 13.5547C62.0627 12.3592 63.6842 11.6875 65.375 11.6875V11.6875C66.5022 11.6875 67.5832 11.2397 68.3802 10.4427C69.1772 9.64567 69.625 8.56467 69.625 7.4375V6.375M78.125 24.65V31.875C78.125 35.2565 76.7817 38.4995 74.3906 40.8906C71.9995 43.2817 68.7565 44.625 65.375 44.625H61.125C57.7435 44.625 54.5005 43.2817 52.1094 40.8906C49.7183 38.4995 48.375 35.2565 48.375 31.875V24.65C48.375 24.3118 48.5093 23.9875 48.7484 23.7484C48.9875 23.5093 49.3118 23.375 49.65 23.375H76.85C77.1882 23.375 77.5125 23.5093 77.7516 23.7484C77.9907 23.9875 78.125 24.3118 78.125 24.65V24.65Z" stroke="#B18C72" stroke-width="3.1875" stroke-linecap="round" stroke-linejoin="round"/>
<path d="M76 23.375H81.3125C82.7215 23.375 84.0727 23.9347 85.069 24.931C86.0653 25.9273 86.625 27.2785 86.625 28.6875C86.625 30.0965 86.0653 31.4477 85.069 32.444C84.0727 33.4403 82.7215 34 81.3125 34H78.125" stroke="#B18C72" stroke-width="3.1875" stroke-linecap="round" stroke-linejoin="round"/>
<path d="M9.809 16.1015C9.93367 16.1015 10.0442 16.1497 10.1405 16.246L11.0415 17.2235C10.5428 17.8412 9.928 18.3143 9.197 18.643C8.47167 18.9717 7.599 19.136 6.579 19.136C5.66667 19.136 4.845 18.9802 4.114 18.6685C3.38867 18.3568 2.76817 17.9233 2.2525 17.368C1.73683 16.8127 1.34017 16.1497 1.0625 15.379C0.7905 14.6083 0.6545 13.7668 0.6545 12.8545C0.6545 11.9308 0.801833 11.0865 1.0965 10.3215C1.39117 9.55083 1.80483 8.88783 2.3375 8.3325C2.87583 7.77717 3.51617 7.3465 4.2585 7.0405C5.00083 6.72883 5.8225 6.573 6.7235 6.573C7.61883 6.573 8.41217 6.72033 9.1035 7.015C9.8005 7.30967 10.3927 7.695 10.88 8.171L10.115 9.2335C10.0697 9.3015 10.0102 9.361 9.9365 9.412C9.8685 9.463 9.77217 9.4885 9.6475 9.4885C9.5625 9.4885 9.47467 9.46583 9.384 9.4205C9.29333 9.3695 9.19417 9.31 9.0865 9.242C8.97883 9.16833 8.85417 9.089 8.7125 9.004C8.57083 8.919 8.4065 8.8425 8.2195 8.7745C8.0325 8.70083 7.81433 8.64133 7.565 8.596C7.32133 8.545 7.038 8.5195 6.715 8.5195C6.16533 8.5195 5.661 8.61867 5.202 8.817C4.74867 9.00967 4.35767 9.293 4.029 9.667C3.70033 10.0353 3.44533 10.4887 3.264 11.027C3.08267 11.5597 2.992 12.1688 2.992 12.8545C2.992 13.5458 3.08833 14.1607 3.281 14.699C3.47933 15.2373 3.74567 15.6907 4.08 16.059C4.41433 16.4273 4.80817 16.7107 5.2615 16.909C5.71483 17.1017 6.20217 17.198 6.7235 17.198C7.03517 17.198 7.31567 17.181 7.565 17.147C7.82 17.113 8.05233 17.0592 8.262 16.9855C8.47733 16.9118 8.6785 16.8183 8.8655 16.705C9.05817 16.586 9.248 16.4415 9.435 16.2715C9.49167 16.2205 9.55117 16.1808 9.6135 16.1525C9.67583 16.1185 9.741 16.1015 9.809 16.1015ZM16.8026 10.143C17.4486 10.143 18.0351 10.2478 18.5621 10.4575C19.0948 10.6672 19.5481 10.9647 19.9221 11.35C20.3018 11.7353 20.5936 12.2057 20.7976 12.761C21.0016 13.3163 21.1036 13.9368 21.1036 14.6225C21.1036 15.3138 21.0016 15.9372 20.7976 16.4925C20.5936 17.0478 20.3018 17.521 19.9221 17.912C19.5481 18.303 19.0948 18.6033 18.5621 18.813C18.0351 19.0227 17.4486 19.1275 16.8026 19.1275C16.151 19.1275 15.5588 19.0227 15.0261 18.813C14.4935 18.6033 14.0373 18.303 13.6576 17.912C13.2836 17.521 12.9918 17.0478 12.7821 16.4925C12.5781 15.9372 12.4761 15.3138 12.4761 14.6225C12.4761 13.9368 12.5781 13.3163 12.7821 12.761C12.9918 12.2057 13.2836 11.7353 13.6576 11.35C14.0373 10.9647 14.4935 10.6672 15.0261 10.4575C15.5588 10.2478 16.151 10.143 16.8026 10.143ZM16.8026 17.5125C17.528 17.5125 18.0635 17.2688 18.4091 16.7815C18.7605 16.2942 18.9361 15.5802 18.9361 14.6395C18.9361 13.6988 18.7605 12.982 18.4091 12.489C18.0635 11.996 17.528 11.7495 16.8026 11.7495C16.066 11.7495 15.5191 11.9988 15.1621 12.4975C14.8108 12.9905 14.6351 13.7045 14.6351 14.6395C14.6351 15.5745 14.8108 16.2885 15.1621 16.7815C15.5191 17.2688 16.066 17.5125 16.8026 17.5125ZM23.9515 19V11.86L23.195 11.741C23.0307 11.707 22.8975 11.6503 22.7955 11.571C22.6992 11.486 22.651 11.367 22.651 11.214V10.3555H23.9515V9.8625C23.9515 9.36383 24.0252 8.91617 24.1725 8.5195C24.3255 8.12283 24.5409 7.78567 24.8185 7.508C25.1019 7.23033 25.4447 7.01783 25.847 6.8705C26.2494 6.72317 26.7027 6.6495 27.207 6.6495C27.6094 6.6495 27.9834 6.70333 28.329 6.811L28.2865 7.8565C28.2809 7.93583 28.2582 8.001 28.2185 8.052C28.1789 8.103 28.125 8.14267 28.057 8.171C27.9947 8.19367 27.921 8.21067 27.836 8.222C27.751 8.22767 27.6604 8.2305 27.564 8.2305C27.3147 8.2305 27.0909 8.25883 26.8925 8.3155C26.6999 8.3665 26.5355 8.46 26.3995 8.596C26.2635 8.72633 26.1587 8.902 26.085 9.123C26.017 9.33833 25.983 9.6075 25.983 9.9305V10.3555H29.4595V9.582C29.4595 9.08333 29.5332 8.63567 29.6805 8.239C29.8335 7.84233 30.0489 7.50517 30.3265 7.2275C30.6099 6.94983 30.9527 6.73733 31.355 6.59C31.7574 6.44267 32.2107 6.369 32.715 6.369C32.9134 6.369 33.1032 6.38317 33.2845 6.4115C33.4715 6.43417 33.6557 6.471 33.837 6.522L33.786 7.576C33.7747 7.74033 33.6982 7.84517 33.5565 7.8905C33.4205 7.93017 33.259 7.95 33.072 7.95C32.8227 7.95 32.5989 7.97833 32.4005 8.035C32.2079 8.086 32.0435 8.1795 31.9075 8.3155C31.7715 8.44583 31.6667 8.6215 31.593 8.8425C31.525 9.05783 31.491 9.327 31.491 9.65V10.3555H33.752V11.8515H31.559V19H29.4595V11.8515H26.051V19H23.9515ZM41.1801 13.6365C41.1801 13.3645 41.1404 13.1095 41.0611 12.8715C40.9874 12.6278 40.8741 12.4153 40.7211 12.234C40.5681 12.0527 40.3726 11.911 40.1346 11.809C39.9023 11.7013 39.6303 11.6475 39.3186 11.6475C38.7123 11.6475 38.2334 11.8203 37.8821 12.166C37.5364 12.5117 37.3154 13.0018 37.2191 13.6365H41.1801ZM37.1766 14.903C37.2106 15.3507 37.2899 15.7388 37.4146 16.0675C37.5393 16.3905 37.7036 16.6597 37.9076 16.875C38.1116 17.0847 38.3524 17.2433 38.6301 17.351C38.9134 17.453 39.2251 17.504 39.5651 17.504C39.9051 17.504 40.1969 17.4643 40.4406 17.385C40.6899 17.3057 40.9053 17.2178 41.0866 17.1215C41.2736 17.0252 41.4351 16.9373 41.5711 16.858C41.7128 16.7787 41.8488 16.739 41.9791 16.739C42.1548 16.739 42.2851 16.8042 42.3701 16.9345L42.9736 17.6995C42.7413 17.9715 42.4806 18.201 42.1916 18.388C41.9026 18.5693 41.5994 18.7167 41.2821 18.83C40.9704 18.9377 40.6503 19.0142 40.3216 19.0595C39.9986 19.1048 39.6841 19.1275 39.3781 19.1275C38.7718 19.1275 38.2079 19.0283 37.6866 18.83C37.1653 18.626 36.7119 18.3285 36.3266 17.9375C35.9413 17.5408 35.6381 17.0535 35.4171 16.4755C35.1961 15.8918 35.0856 15.2175 35.0856 14.4525C35.0856 13.8575 35.1819 13.2993 35.3746 12.778C35.5673 12.251 35.8421 11.7948 36.1991 11.4095C36.5618 11.0185 37.0009 10.7097 37.5166 10.483C38.0379 10.2563 38.6244 10.143 39.2761 10.143C39.8258 10.143 40.3329 10.2308 40.7976 10.4065C41.2623 10.5822 41.6618 10.84 41.9961 11.18C42.3304 11.5143 42.5911 11.928 42.7781 12.421C42.9708 12.9083 43.0671 13.4665 43.0671 14.0955C43.0671 14.4128 43.0331 14.6282 42.9651 14.7415C42.8971 14.8492 42.7668 14.903 42.5741 14.903H37.1766Z" fill="#B18C72"/>
<path d="M90.9535 45.5875H87.2475V56H84.961V45.5875H81.255V43.709H90.9535V45.5875ZM95.8114 52.277C95.2051 52.3053 94.6951 52.3592 94.2814 52.4385C93.8677 52.5122 93.5362 52.6085 93.2869 52.7275C93.0375 52.8465 92.859 52.9853 92.7514 53.144C92.6437 53.3027 92.5899 53.4755 92.5899 53.6625C92.5899 54.0308 92.6976 54.2943 92.9129 54.453C93.1339 54.6117 93.4201 54.691 93.7714 54.691C94.202 54.691 94.5732 54.6145 94.8849 54.4615C95.2022 54.3028 95.511 54.0648 95.8114 53.7475V52.277ZM91.0004 48.4945C92.0034 47.5765 93.2104 47.1175 94.6214 47.1175C95.1314 47.1175 95.5876 47.2025 95.9899 47.3725C96.3922 47.5368 96.7322 47.7692 97.0099 48.0695C97.2876 48.3642 97.4972 48.7183 97.6389 49.132C97.7862 49.5457 97.8599 49.999 97.8599 50.492V56H96.9079C96.7096 56 96.5566 55.9717 96.4489 55.915C96.3412 55.8527 96.2562 55.7308 96.1939 55.5495L96.0069 54.9205C95.7859 55.1188 95.5705 55.2945 95.3609 55.4475C95.1512 55.5948 94.933 55.7195 94.7064 55.8215C94.4797 55.9235 94.236 56 93.9754 56.051C93.7204 56.1077 93.4371 56.136 93.1254 56.136C92.7571 56.136 92.4171 56.0878 92.1054 55.9915C91.7937 55.8895 91.5245 55.7393 91.2979 55.541C91.0712 55.3427 90.8955 55.0962 90.7709 54.8015C90.6462 54.5068 90.5839 54.164 90.5839 53.773C90.5839 53.552 90.6207 53.3338 90.6944 53.1185C90.768 52.8975 90.887 52.6878 91.0514 52.4895C91.2214 52.2912 91.4395 52.1042 91.7059 51.9285C91.9722 51.7528 92.298 51.5998 92.6834 51.4695C93.0744 51.3392 93.5277 51.2343 94.0434 51.155C94.5591 51.07 95.1484 51.019 95.8114 51.002V50.492C95.8114 49.9083 95.6867 49.4777 95.4374 49.2C95.1881 48.9167 94.8282 48.775 94.3579 48.775C94.0179 48.775 93.7346 48.8147 93.5079 48.894C93.2869 48.9733 93.0914 49.064 92.9214 49.166C92.7514 49.2623 92.5955 49.3502 92.4539 49.4295C92.3179 49.5088 92.1649 49.5485 91.9949 49.5485C91.8475 49.5485 91.7229 49.5117 91.6209 49.438C91.5189 49.3587 91.4367 49.268 91.3744 49.166L91.0004 48.4945ZM102.812 43.369V56H100.713V43.369H102.812ZM107.853 43.369V50.6025H108.244C108.386 50.6025 108.497 50.5855 108.576 50.5515C108.661 50.5118 108.746 50.4353 108.831 50.322L110.998 47.6445C111.089 47.5255 111.188 47.4348 111.296 47.3725C111.409 47.3102 111.554 47.279 111.729 47.279H113.65L110.939 50.5175C110.746 50.7725 110.537 50.968 110.31 51.104C110.429 51.189 110.534 51.2882 110.624 51.4015C110.721 51.5148 110.811 51.6367 110.896 51.767L113.803 56H111.908C111.744 56 111.602 55.9745 111.483 55.9235C111.364 55.8668 111.265 55.7677 111.185 55.626L108.958 52.3195C108.879 52.1892 108.797 52.1042 108.712 52.0645C108.627 52.0248 108.499 52.005 108.329 52.005H107.853V56H105.754V43.369H107.853Z" fill="#B18C72"/>
</svg>
