<svg width="24" height="24" viewBox="0 0 24 24" fill="none" xmlns="http://www.w3.org/2000/svg">
<g id="Instagram">
<path id="Vector" d="M12 7.5C12.89 7.5 13.76 7.76392 14.5001 8.25839C15.2401 8.75285 15.8169 9.45566 16.1575 10.2779C16.4981 11.1002 16.5872 12.005 16.4135 12.8779C16.2399 13.7508 15.8113 14.5526 15.182 15.182C14.5526 15.8113 13.7508 16.2399 12.8779 16.4135C12.005 16.5872 11.1002 16.4981 10.2779 16.1575C9.45566 15.8169 8.75285 15.2401 8.25839 14.5001C7.76392 13.76 7.5 12.89 7.5 12C7.5 10.8065 7.9741 9.66193 8.81802 8.81802C9.66193 7.97411 10.8065 7.5 12 7.5ZM12 15C12.5933 15 13.1734 14.8241 13.6667 14.4944C14.1601 14.1648 14.5446 13.6962 14.7716 13.1481C14.9987 12.5999 15.0581 11.9967 14.9424 11.4147C14.8266 10.8328 14.5409 10.2982 14.1213 9.87868C13.7018 9.45912 13.1672 9.1734 12.5853 9.05764C12.0033 8.94189 11.4001 9.0013 10.8519 9.22836C10.3038 9.45542 9.83524 9.83994 9.50559 10.3333C9.17595 10.8266 9 11.4067 9 12C9.00247 12.7949 9.31934 13.5565 9.88141 14.1186C10.4435 14.6807 11.2051 14.9975 12 15ZM7.875 2.625H16.125C17.5174 2.625 18.8527 3.17812 19.8373 4.16269C20.8219 5.14726 21.375 6.48261 21.375 7.875V16.125C21.375 17.5174 20.8219 18.8527 19.8373 19.8373C18.8527 20.8219 17.5174 21.375 16.125 21.375H7.875C6.48261 21.375 5.14725 20.8219 4.16269 19.8373C3.17812 18.8527 2.625 17.5174 2.625 16.125V7.875C2.625 6.48261 3.17812 5.14726 4.16269 4.16269C5.14725 3.17812 6.48261 2.625 7.875 2.625ZM4.125 16.125C4.125 16.6175 4.222 17.1051 4.41045 17.5601C4.59891 18.015 4.87513 18.4284 5.22335 18.7766C5.57157 19.1249 5.98497 19.4011 6.43994 19.5895C6.89491 19.778 7.38254 19.875 7.875 19.875H16.125C16.6175 19.875 17.1051 19.778 17.5601 19.5895C18.015 19.4011 18.4284 19.1249 18.7767 18.7766C19.1249 18.4284 19.4011 18.015 19.5895 17.5601C19.778 17.1051 19.875 16.6175 19.875 16.125V7.875C19.875 6.88044 19.4799 5.92661 18.7767 5.22335C18.0734 4.52009 17.1196 4.125 16.125 4.125H7.875C7.38254 4.125 6.89491 4.222 6.43994 4.41045C5.98497 4.59891 5.57157 4.87513 5.22335 5.22335C4.87513 5.57157 4.59891 5.98497 4.41045 6.43994C4.222 6.89491 4.125 7.38254 4.125 7.875V16.125ZM6 7.125C6 7.3475 6.06598 7.56501 6.1896 7.75002C6.31321 7.93502 6.48892 8.07922 6.69448 8.16436C6.90005 8.24951 7.12625 8.27179 7.34448 8.22838C7.56271 8.18498 7.76316 8.07783 7.92049 7.9205C8.07783 7.76316 8.18498 7.56271 8.22838 7.34448C8.27179 7.12625 8.24951 6.90005 8.16436 6.69448C8.07922 6.48891 7.93502 6.31321 7.75002 6.1896C7.56501 6.06598 7.3475 6 7.125 6C6.82663 6 6.54048 6.11853 6.32951 6.3295C6.11853 6.54048 6 6.82663 6 7.125Z" fill="#B18C72"/>
</g>
</svg>
